<?xml version="1.0" encoding="UTF-8"?>
<!DOCTYPE svg PUBLIC "-//W3C//DTD SVG 1.1//EN" "http://www.w3.org/Graphics/SVG/1.1/DTD/svg11.dtd">
<svg xmlns="http://www.w3.org/2000/svg" version="1.1" width="500px" height="500px" style="shape-rendering:geometricPrecision; text-rendering:geometricPrecision; image-rendering:optimizeQuality; fill-rule:evenodd; clip-rule:evenodd" xmlns:xlink="http://www.w3.org/1999/xlink">
<g><path style="opacity:1" fill="#8f7676" d="M 257.5,142.5 C 257.5,142.833 257.5,143.167 257.5,143.5C 251.5,143.5 245.5,143.5 239.5,143.5C 239.167,143.5 238.833,143.5 238.5,143.5C 238.5,143.167 238.5,142.833 238.5,142.5C 244.983,141.324 251.317,141.324 257.5,142.5 Z"/></g>
<g><path style="opacity:0.098" fill="#bbb4b0" d="M 257.5,143.5 C 257.5,143.167 257.5,142.833 257.5,142.5C 261.182,142.335 264.848,142.501 268.5,143C 274.476,144.281 280.143,146.114 285.5,148.5C 276.335,146.068 267.002,144.401 257.5,143.5 Z"/></g>
<g><path style="opacity:0.741" fill="#c5c9c5" d="M 238.5,142.5 C 238.5,142.833 238.5,143.167 238.5,143.5C 234.84,143.159 231.507,143.825 228.5,145.5C 222.233,145.952 216.233,147.285 210.5,149.5C 212.493,147.837 214.826,146.67 217.5,146C 224.344,143.864 231.344,142.698 238.5,142.5 Z"/></g>
<g><path style="opacity:1" fill="#a13128" d="M 238.5,143.5 C 238.833,143.5 239.167,143.5 239.5,143.5C 236.054,144.687 232.387,145.354 228.5,145.5C 231.507,143.825 234.84,143.159 238.5,143.5 Z"/></g>
<g><path style="opacity:0.373" fill="#cacfcb" d="M 210.5,149.5 C 208.574,151.293 206.241,152.293 203.5,152.5C 205.185,150.182 207.519,149.182 210.5,149.5 Z"/></g>
<g><path style="opacity:0.365" fill="#c8c8c6" d="M 203.5,152.5 C 202.713,154.104 201.38,154.771 199.5,154.5C 200.514,153.326 201.847,152.66 203.5,152.5 Z"/></g>
<g><path style="opacity:0.227" fill="#ccc4c0" d="M 199.5,154.5 C 196.68,156.745 193.68,158.745 190.5,160.5C 192.63,157.263 195.63,155.263 199.5,154.5 Z"/></g>
<g><path style="opacity:0.282" fill="#c9c2c0" d="M 190.5,160.5 C 187.72,163.064 184.72,165.397 181.5,167.5C 181.511,165.983 182.177,164.816 183.5,164C 185.577,162.295 187.91,161.128 190.5,160.5 Z"/></g>
<g><path style="opacity:1" fill="#1a1a19" d="M 271.5,258.5 C 248.663,257.833 225.663,257.167 202.5,256.5C 203.127,255.583 203.461,254.583 203.5,253.5C 209.21,237.743 215.21,222.076 221.5,206.5C 265.833,206.5 310.167,206.5 354.5,206.5C 354.068,207.71 353.401,208.71 352.5,209.5C 350.833,209.5 349.167,209.5 347.5,209.5C 347.719,210.675 347.386,211.675 346.5,212.5C 344.246,213.124 342.579,214.457 341.5,216.5C 343.616,217.972 345.949,219.139 348.5,220C 343.981,220.175 339.647,220.675 335.5,221.5C 345.756,261.225 335.423,294.392 304.5,321C 267.734,345.571 231.067,345.571 194.5,321C 191.221,318.211 188.221,315.211 185.5,312C 217.114,312.243 248.781,311.91 280.5,311C 287.181,308.987 292.014,304.82 295,298.5C 302.929,278.478 310.429,258.311 317.5,238C 316.733,229.901 312.4,224.901 304.5,223C 280.836,222.5 257.169,222.333 233.5,222.5C 231.507,228.49 229.507,234.49 227.5,240.5C 250.685,240.836 273.685,241.836 296.5,243.5C 289.583,259.582 283.249,275.915 277.5,292.5C 232.195,292.51 187.195,292.51 142.5,292.5C 142.279,289.721 142.612,287.054 143.5,284.5C 145.011,281.456 145.678,278.122 145.5,274.5C 146.404,275.209 146.737,276.209 146.5,277.5C 151.975,278.489 157.642,278.822 163.5,278.5C 163.784,276.585 163.451,274.919 162.5,273.5C 153.152,226.681 169.152,191.514 210.5,168C 215.774,165.854 221.107,164.02 226.5,162.5C 229.495,162.706 232.162,162.04 234.5,160.5C 265.026,156.787 291.36,165.454 313.5,186.5C 280.42,187.013 247.42,187.847 214.5,189C 207.709,193.118 203.209,198.951 201,206.5C 195.228,223.377 188.895,240.044 182,256.5C 180.713,265.553 184.213,272.053 192.5,276C 216.84,276.833 241.174,276.666 265.5,275.5C 267.219,269.729 269.219,264.063 271.5,258.5 Z"/></g>
<g><path style="opacity:0.678" fill="#bfb5b1" d="M 285.5,148.5 C 298.608,152.388 310.274,158.888 320.5,168C 324.107,171.098 327.107,174.598 329.5,178.5C 323.572,172.536 317.239,167.036 310.5,162C 302.323,157.013 293.989,152.513 285.5,148.5 Z"/></g>
<g><path style="opacity:0.161" fill="#c8afa8" d="M 181.5,167.5 C 179.766,170.2 177.432,172.2 174.5,173.5C 174.414,172.504 174.748,171.671 175.5,171C 177.24,169.306 179.24,168.139 181.5,167.5 Z"/></g>
<g><path style="opacity:1" fill="#fa1a19" d="M 239.5,143.5 C 245.5,143.5 251.5,143.5 257.5,143.5C 267.002,144.401 276.335,146.068 285.5,148.5C 293.989,152.513 302.323,157.013 310.5,162C 317.239,167.036 323.572,172.536 329.5,178.5C 329.932,179.71 330.599,180.71 331.5,181.5C 333.002,183.175 334.335,185.008 335.5,187C 343.827,187.5 352.16,187.666 360.5,187.5C 361.167,187.5 361.5,187.833 361.5,188.5C 360.347,192.111 359.347,195.777 358.5,199.5C 358.608,201.514 357.942,203.18 356.5,204.5C 311.402,205.162 266.402,205.828 221.5,206.5C 215.21,222.076 209.21,237.743 203.5,253.5C 201.957,254.736 200.957,256.402 200.5,258.5C 201,258.833 201.5,259.167 202,259.5C 225.134,258.515 248.3,258.182 271.5,258.5C 269.219,264.063 267.219,269.729 265.5,275.5C 241.174,276.666 216.84,276.833 192.5,276C 184.213,272.053 180.713,265.553 182,256.5C 188.895,240.044 195.228,223.377 201,206.5C 203.209,198.951 207.709,193.118 214.5,189C 247.42,187.847 280.42,187.013 313.5,186.5C 291.36,165.454 265.026,156.787 234.5,160.5C 231.572,160.565 228.905,161.232 226.5,162.5C 221.107,164.02 215.774,165.854 210.5,168C 169.152,191.514 153.152,226.681 162.5,273.5C 162.5,274.833 162.5,276.167 162.5,277.5C 157.167,277.5 151.833,277.5 146.5,277.5C 146.737,276.209 146.404,275.209 145.5,274.5C 143.916,263.232 143.249,251.898 143.5,240.5C 145.054,236.433 145.72,232.1 145.5,227.5C 145.5,226.5 145.5,225.5 145.5,224.5C 146.537,223.07 147.204,221.403 147.5,219.5C 148.924,217.485 149.59,215.152 149.5,212.5C 149.5,212.167 149.5,211.833 149.5,211.5C 150.931,210.22 151.598,208.553 151.5,206.5C 152.906,206.027 153.573,205.027 153.5,203.5C 153.5,203.167 153.5,202.833 153.5,202.5C 156.335,198.836 158.668,194.836 160.5,190.5C 161.906,190.027 162.573,189.027 162.5,187.5C 164.633,185.909 166.299,183.909 167.5,181.5C 170.2,179.766 172.2,177.432 173.5,174.5C 173.5,173.833 173.833,173.5 174.5,173.5C 177.432,172.2 179.766,170.2 181.5,167.5C 184.72,165.397 187.72,163.064 190.5,160.5C 193.68,158.745 196.68,156.745 199.5,154.5C 201.38,154.771 202.713,154.104 203.5,152.5C 206.241,152.293 208.574,151.293 210.5,149.5C 216.233,147.285 222.233,145.952 228.5,145.5C 232.387,145.354 236.054,144.687 239.5,143.5 Z"/></g>
<g><path style="opacity:1" fill="#6f1a16" d="M 234.5,160.5 C 232.162,162.04 229.495,162.706 226.5,162.5C 228.905,161.232 231.572,160.565 234.5,160.5 Z"/></g>
<g><path style="opacity:0.02" fill="#d5d3d0" d="M 329.5,178.5 C 331.048,178.821 331.715,179.821 331.5,181.5C 330.599,180.71 329.932,179.71 329.5,178.5 Z"/></g>
<g><path style="opacity:0.141" fill="#cdb5af" d="M 173.5,174.5 C 172.2,177.432 170.2,179.766 167.5,181.5C 168.139,179.24 169.306,177.24 171,175.5C 171.671,174.748 172.504,174.414 173.5,174.5 Z"/></g>
<g><path style="opacity:0.408" fill="#d6cecb" d="M 167.5,181.5 C 166.299,183.909 164.633,185.909 162.5,187.5C 163.247,184.638 164.914,182.638 167.5,181.5 Z"/></g>
<g><path style="opacity:0.145" fill="#c3c4c0" d="M 331.5,181.5 C 333.924,182.831 336.257,184.331 338.5,186C 346.011,186.171 353.345,186.671 360.5,187.5C 352.16,187.666 343.827,187.5 335.5,187C 334.335,185.008 333.002,183.175 331.5,181.5 Z"/></g>
<g><path style="opacity:0.369" fill="#d4c6c4" d="M 162.5,187.5 C 162.573,189.027 161.906,190.027 160.5,190.5C 160.427,188.973 161.094,187.973 162.5,187.5 Z"/></g>
<g><path style="opacity:0.141" fill="#d29996" d="M 361.5,188.5 C 362.598,189.601 362.765,190.934 362,192.5C 361.272,195.187 360.105,197.52 358.5,199.5C 359.347,195.777 360.347,192.111 361.5,188.5 Z"/></g>
<g><path style="opacity:0.224" fill="#d7c9c7" d="M 160.5,190.5 C 158.668,194.836 156.335,198.836 153.5,202.5C 154.809,197.879 157.142,193.879 160.5,190.5 Z"/></g>
<g><path style="opacity:0.467" fill="#c6afac" d="M 153.5,203.5 C 153.573,205.027 152.906,206.027 151.5,206.5C 151.427,204.973 152.094,203.973 153.5,203.5 Z"/></g>
<g><path style="opacity:1" fill="#af1f21" d="M 356.5,204.5 C 356.5,205.833 355.833,206.5 354.5,206.5C 310.167,206.5 265.833,206.5 221.5,206.5C 266.402,205.828 311.402,205.162 356.5,204.5 Z"/></g>
<g><path style="opacity:0.027" fill="#e2e1df" d="M 151.5,206.5 C 151.598,208.553 150.931,210.22 149.5,211.5C 149.12,209.302 149.787,207.635 151.5,206.5 Z"/></g>
<g><path style="opacity:0.91" fill="#d1877e" d="M 149.5,212.5 C 149.59,215.152 148.924,217.485 147.5,219.5C 147.5,218.833 147.5,218.167 147.5,217.5C 147.402,215.447 148.069,213.78 149.5,212.5 Z"/></g>
<g><path style="opacity:1" fill="#888888" d="M 352.5,209.5 C 350.186,211.477 347.853,213.477 345.5,215.5C 347.171,216.836 348.838,218.169 350.5,219.5C 345.944,221.442 340.944,222.108 335.5,221.5C 339.647,220.675 343.981,220.175 348.5,220C 345.949,219.139 343.616,217.972 341.5,216.5C 342.579,214.457 344.246,213.124 346.5,212.5C 347.386,211.675 347.719,210.675 347.5,209.5C 349.167,209.5 350.833,209.5 352.5,209.5 Z"/></g>
<g><path style="opacity:0.176" fill="#d7d9d6" d="M 147.5,217.5 C 147.5,218.167 147.5,218.833 147.5,219.5C 147.204,221.403 146.537,223.07 145.5,224.5C 145.41,221.848 146.076,219.515 147.5,217.5 Z"/></g>
<g><path style="opacity:1" fill="#fafafa" d="M 350.5,219.5 C 352.708,220.894 354.208,222.894 355,225.5C 357.486,243.963 356.82,262.297 353,280.5C 352.243,282.315 351.41,283.981 350.5,285.5C 350.607,283.621 350.107,283.288 349,284.5C 336.108,319.057 311.941,341.557 276.5,352C 277.793,352.49 279.127,352.657 280.5,352.5C 233.262,364.193 194.262,351.36 163.5,314C 160.845,312.559 158.012,311.726 155,311.5C 149.854,312.471 144.687,312.637 139.5,312C 137.876,310.883 136.876,309.383 136.5,307.5C 137.753,302.103 139.753,297.103 142.5,292.5C 187.195,292.51 232.195,292.51 277.5,292.5C 283.249,275.915 289.583,259.582 296.5,243.5C 297.404,242.791 297.737,241.791 297.5,240.5C 274.167,240.5 250.833,240.5 227.5,240.5C 229.507,234.49 231.507,228.49 233.5,222.5C 257.169,222.333 280.836,222.5 304.5,223C 312.4,224.901 316.733,229.901 317.5,238C 310.429,258.311 302.929,278.478 295,298.5C 292.014,304.82 287.181,308.987 280.5,311C 248.781,311.91 217.114,312.243 185.5,312C 188.221,315.211 191.221,318.211 194.5,321C 231.067,345.571 267.734,345.571 304.5,321C 335.423,294.392 345.756,261.225 335.5,221.5C 340.944,222.108 345.944,221.442 350.5,219.5 Z"/></g>
<g><path style="opacity:0.576" fill="#e07573" d="M 145.5,227.5 C 145.72,232.1 145.054,236.433 143.5,240.5C 143.5,239.833 143.5,239.167 143.5,238.5C 143.251,234.542 143.918,230.876 145.5,227.5 Z"/></g>
<g><path style="opacity:1" fill="#bfbfbf" d="M 227.5,240.5 C 250.833,240.5 274.167,240.5 297.5,240.5C 297.737,241.791 297.404,242.791 296.5,243.5C 273.685,241.836 250.685,240.836 227.5,240.5 Z"/></g>
<g><path style="opacity:0.184" fill="#e2d4d3" d="M 143.5,238.5 C 143.5,239.167 143.5,239.833 143.5,240.5C 143.249,251.898 143.916,263.232 145.5,274.5C 145.678,278.122 145.011,281.456 143.5,284.5C 142.583,269.001 142.583,253.667 143.5,238.5 Z"/></g>
<g><path style="opacity:1" fill="#c91620" d="M 203.5,253.5 C 203.461,254.583 203.127,255.583 202.5,256.5C 225.663,257.167 248.663,257.833 271.5,258.5C 248.3,258.182 225.134,258.515 202,259.5C 201.5,259.167 201,258.833 200.5,258.5C 200.957,256.402 201.957,254.736 203.5,253.5 Z"/></g>
<g><path style="opacity:1" fill="#9e1b1e" d="M 162.5,273.5 C 163.451,274.919 163.784,276.585 163.5,278.5C 157.642,278.822 151.975,278.489 146.5,277.5C 151.833,277.5 157.167,277.5 162.5,277.5C 162.5,276.167 162.5,274.833 162.5,273.5 Z"/></g>
<g><path style="opacity:0.71" fill="#d1d1d1" d="M 350.5,285.5 C 338.333,319.331 315,341.664 280.5,352.5C 279.127,352.657 277.793,352.49 276.5,352C 311.941,341.557 336.108,319.057 349,284.5C 350.107,283.288 350.607,283.621 350.5,285.5 Z"/></g>
</svg>
